{
  "accessors": [
    {
      "bufferView": 2,
      "componentType": 5126,
      "count": 1084,
      "max": [
        11.107921600341797,
        2.9498090744018555,
        10.12470531463623
      ],
      "min": [
        -8.31319522857666,
        -2.8039276599884033,
        -10.12470531463623
      ],
      "type": "VEC3"
    },
    {
      "bufferView": 2,
      "byteOffset": 13008,
      "componentType": 5126,
      "count": 1084,
      "max": [
        0.999668300151825,
        1.0,
        0.9993668794631958
      ],
      "min": [
        -1.0,
        -1.0,
        -0.9993668794631958
      ],
      "type": "VEC3"
    },
    {
      "bufferView": 1,
      "componentType": 5126,
      "count": 1084,
      "max": [
        0.8750001192092896,
        1.0000865459442139
      ],
      "min": [
        0.0,
        0.0
      ],
      "type": "VEC2"
    },
    {
      "bufferView": 0,
      "componentType": 5125,
      "count": 3084,
      "type": "SCALAR"
    },
    {
      "bufferView": 2,
      "byteOffset": 26016,
      "componentType": 5126,
      "count": 56,
      "max": [
        10.381758689880371,
        2.453129529953003,
        2.2251133918762207
      ],
      "min": [
        3.7903451919555664,
        0.47979414463043213,
        -2.2251133918762207
      ],
      "type": "VEC3"
    },
    {
      "bufferView": 2,
      "byteOffset": 26688,
      "componentType": 5126,
      "count": 56,
      "max": [
        0.39932140707969666,
        0.980751097202301,
        0.9299440979957581
      ],
      "min": [
        0.15922661125659943,
        0.32042190432548523,
        -0.9299440979957581
      ],
      "type": "VEC3"
    },
    {
      "bufferView": 1,
      "byteOffset": 8672,
      "componentType": 5126,
      "count": 56,
      "max": [
        0.8750000596046448,
        1.0000001192092896
      ],
      "min": [
        0.5287531614303589,
        0.625
      ],
      "type": "VEC2"
    },
    {
      "bufferView": 0,
      "byteOffset": 12336,
      "componentType": 5125,
      "count": 84,
      "type": "SCALAR"
    },
    {
      "bufferView": 2,
      "byteOffset": 27360,
      "componentType": 5126,
      "count": 2036,
      "max": [
        1.8915033340454102,
        4.231253147125244,
        4.231659889221191
      ],
      "min": [
        -7.979071617126465,
        1.60642671585083,
        -4.231659889221191
      ],
      "type": "VEC3"
    },
    {
      "bufferView": 2,
      "byteOffset": 51792,
      "componentType": 5126,
      "count": 2036,
      "max": [
        1.0,
        0.9990478754043579,
        0.9993074536323547
      ],
      "min": [
        -0.9999004602432251,
        -0.9987425804138184,
        -0.9993074536323547
      ],
      "type": "VEC3"
    },
    {
      "bufferView": 1,
      "byteOffset": 9120,
      "componentType": 5126,
      "count": 2036,
      "max": [
        1.0,
        1.0
      ],
      "min": [
        0.0,
        0.0
      ],
      "type": "VEC2"
    },
    {
      "bufferView": 0,
      "byteOffset": 12672,
      "componentType": 5125,
      "count": 3072,
      "type": "SCALAR"
    },
    {
      "bufferView": 2,
      "byteOffset": 76224,
      "componentType": 5126,
      "count": 190,
      "max": [
        10.904321670532227,
        1.7634714841842651,
        10.124005317687988
      ],
      "min": [
        -2.9126501083374023,
        -1.846346139907837,
        -10.124005317687988
      ],
      "type": "VEC3"
    },
    {
      "bufferView": 2,
      "byteOffset": 78504,
      "componentType": 5126,
      "count": 190,
      "max": [
        0.8195004463195801,
        0.999992311000824,
        0.9992861747741699
      ],
      "min": [
        -0.6947116851806641,
        -0.9999998807907104,
        -0.9992861747741699
      ],
      "type": "VEC3"
    },
    {
      "bufferView": 1,
      "byteOffset": 25408,
      "componentType": 5126,
      "count": 190,
      "max": [
        0.6370462775230408,
        1.0000001192092896
      ],
      "min": [
        0.125,
        0.625
      ],
      "type": "VEC2"
    },
    {
      "bufferView": 0,
      "byteOffset": 24960,
      "componentType": 5125,
      "count": 288,
      "type": "SCALAR"
    },
    {
      "bufferView": 2,
      "byteOffset": 80784,
      "componentType": 5126,
      "count": 370,
      "max": [
        -3.0505943298339844,
        4.178000450134277,
        3.8845746517181396
      ],
      "min": [
        -8.5353364944458,
        -1.6569066047668457,
        -3.8845746517181396
      ],
      "type": "VEC3"
    },
    {
      "bufferView": 2,
      "byteOffset": 85224,
      "componentType": 5126,
      "count": 370,
      "max": [
        -0.3575148582458496,
        0.9120351672172546,
        0.9339075088500977
      ],
      "min": [
        -1.0,
        -0.9118337035179138,
        -0.9339075088500977
      ],
      "type": "VEC3"
    },
    {
      "bufferView": 1,
      "byteOffset": 26928,
      "componentType": 5126,
      "count": 370,
      "max": [
        0.7854570150375366,
        1.0
      ],
      "min": [
        0.2148124873638153,
        0.04493214935064316
      ],
      "type": "VEC2"
    },
    {
      "bufferView": 0,
      "byteOffset": 26112,
      "componentType": 5125,
      "count": 840,
      "type": "SCALAR"
    },
    {
      "bufferView": 2,
      "byteOffset": 89664,
      "componentType": 5126,
      "count": 1144,
      "max": [
        9.600969314575195,
        1.3074312210083008,
        2.2330918312072754
      ],
      "min": [
        -7.826291084289551,
        -1.3094267845153809,
        -2.2330918312072754
      ],
      "type": "VEC3"
    },
    {
      "bufferView": 2,
      "byteOffset": 103392,
      "componentType": 5126,
      "count": 1144,
      "max": [
        0.9785720109939575,
        0.9999588131904602,
        1.0
      ],
      "min": [
        -0.941826343536377,
        -0.9999661445617676,
        -1.0
      ],
      "type": "VEC3"
    },
    {
      "bufferView": 1,
      "byteOffset": 29888,
      "componentType": 5126,
      "count": 1144,
      "max": [
        0.750889778137207,
        1.0000001192092896
      ],
      "min": [
        0.0,
        0.0
      ],
      "type": "VEC2"
    },
    {
      "bufferView": 0,
      "byteOffset": 29472,
      "componentType": 5125,
      "count": 1716,
      "type": "SCALAR"
    },
    {
      "bufferView": 2,
      "byteOffset": 117120,
      "componentType": 5126,
      "count": 336,
      "max": [
        2.8597660064697266,
        3.4094579219818115,
        3.9464709758758545
      ],
      "min": [
        -4.073846817016602,
        -1.5997357368469238,
        -3.9464709758758545
      ],
      "type": "VEC3"
    },
    {
      "bufferView": 2,
      "byteOffset": 121152,
      "componentType": 5126,
      "count": 336,
      "max": [
        1.0,
        5.218675482865365e-07,
        0.15484808385372162
      ],
      "min": [
        -1.0,
        -0.032872769981622696,
        -0.1548481285572052
      ],
      "type": "VEC3"
    },
    {
      "bufferView": 1,
      "byteOffset": 39040,
      "componentType": 5126,
      "count": 336,
      "max": [
        1.0,
        1.0000001192092896
      ],
      "min": [
        0.0,
        0.0
      ],
      "type": "VEC2"
    },
    {
      "bufferView": 0,
      "byteOffset": 36336,
      "componentType": 5125,
      "count": 924,
      "type": "SCALAR"
    },
    {
      "bufferView": 2,
      "byteOffset": 125184,
      "componentType": 5126,
      "count": 5144,
      "max": [
        0.1964883804321289,
        4.437689781188965,
        4.153581142425537
      ],
      "min": [
        -10.018654823303223,
        1.60642671585083,
        -4.153581142425537
      ],
      "type": "VEC3"
    },
    {
      "bufferView": 2,
      "byteOffset": 186912,
      "componentType": 5126,
      "count": 5144,
      "max": [
        1.0,
        0.9828272461891174,
        1.0
      ],
      "min": [
        -1.0,
        -0.9828272461891174,
        -1.0
      ],
      "type": "VEC3"
    },
    {
      "bufferView": 1,
      "byteOffset": 41728,
      "componentType": 5126,
      "count": 5144,
      "max": [
        0.7687621712684631,
        1.0000001192092896
      ],
      "min": [
        0.0,
        0.010000004433095455
      ],
      "type": "VEC2"
    },
    {
      "bufferView": 0,
      "byteOffset": 40032,
      "componentType": 5125,
      "count": 7776,
      "type": "SCALAR"
    },
    {
      "bufferView": 3,
      "componentType": 5126,
      "count": 100,
      "max": [
        4.166666507720947
      ],
      "min": [
        0.0416666679084301
      ],
      "type": "SCALAR"
    },
    {
      "bufferView": 4,
      "componentType": 5126,
      "count": 100,
      "max": [
        0.0,
        0.9999774694442749,
        -0.0,
        0.999987006187439
      ],
      "min": [
        0.0,
        -0.9987569451332092,
        -0.0,
        -0.006710285786539316
      ],
      "type": "VEC4"
    },
    {
      "bufferView": 3,
      "byteOffset": 400,
      "componentType": 5126,
      "count": 101,
      "max": [
        4.166666507720947
      ],
      "min": [
        0.0
      ],
      "type": "SCALAR"
    },
    {
      "bufferView": 4,
      "byteOffset": 1600,
      "componentType": 5126,
      "count": 101,
      "max": [
        0.0,
        0.9999774694442749,
        -0.0,
        0.999987006187439
      ],
      "min": [
        0.0,
        -0.9987569451332092,
        -0.0,
        -0.006710283923894167
      ],
      "type": "VEC4"
    }
  ],
  "animations": [
    {
      "channels": [
        {
          "sampler": 0,
          "target": {
            "node": 3,
            "path": "rotation"
          }
        }
      ],
      "name": "Action",
      "samplers": [
        {
          "input": 32,
          "interpolation": "LINEAR",
          "output": 33
        }
      ]
    },
    {
      "channels": [
        {
          "sampler": 0,
          "target": {
            "node": 3,
            "path": "rotation"
          }
        }
      ],
      "name": "CubeAction",
      "samplers": [
        {
          "input": 34,
          "interpolation": "LINEAR",
          "output": 35
        }
      ]
    }
  ],
  "asset": {
    "extras": {
      "author": "Rishav Gupta (https://sketchfab.com/Rishav_Gupta)",
      "license": "CC-BY-4.0 (http://creativecommons.org/licenses/by/4.0/)",
      "source": "https://sketchfab.com/3d-models/spaceship-raider-class-pathfinder-0e64370057db4c8f9eaaa96bd4d0e289",
      "title": "Spaceship Raider Class : Pathfinder"
    },
    "generator": "Sketchfab-12.68.0",
    "version": "2.0"
  },
  "bufferViews": [
    {
      "buffer": 0,
      "byteLength": 71136,
      "name": "floatBufferViews",
      "target": 34963
    },
    {
      "buffer": 0,
      "byteLength": 82880,
      "byteOffset": 71136,
      "byteStride": 8,
      "name": "floatBufferViews",
      "target": 34962
    },
    {
      "buffer": 0,
      "byteLength": 248640,
      "byteOffset": 154016,
      "byteStride": 12,
      "name": "floatBufferViews",
      "target": 34962
    },
    {
      "buffer": 0,
      "byteLength": 804,
      "byteOffset": 402656,
      "name": "floatBufferViews"
    },
    {
      "buffer": 0,
      "byteLength": 3216,
      "byteOffset": 403460,
      "byteStride": 16,
      "name": "floatBufferViews"
    }
  ],
  "buffers": [
    {
      "byteLength": 406676,
      "uri": "scene.bin"
    }
  ],
  "extensionsUsed": [
    "KHR_materials_clearcoat"
  ],
  "materials": [
    {
      "doubleSided": true,
      "extensions": {
        "KHR_materials_clearcoat": {
          "clearcoatFactor": 1.0,
          "clearcoatRoughnessFactor": 0.04
        }
      },
      "name": "Blue_body",
      "pbrMetallicRoughness": {
        "baseColorFactor": [
          0.03801899999999998,
          0.19012299999999985,
          0.7999999999999999,
          1.0
        ],
        "metallicFactor": 0.8574489355912098,
        "roughnessFactor": 0.3658307226537606
      }
    },
    {
      "doubleSided": true,
      "extensions": {
        "KHR_materials_clearcoat": {
          "clearcoatFactor": 1.0,
          "clearcoatRoughnessFactor": 0.04
        }
      },
      "name": "glass",
      "pbrMetallicRoughness": {
        "baseColorFactor": [
          0.01605650207428838,
          0.014990743864145893,
          0.014990743864145893,
          1.0
        ],
        "metallicFactor": 0.40224688657505314
      }
    },
    {
      "doubleSided": true,
      "extensions": {
        "KHR_materials_clearcoat": {
          "clearcoatFactor": 1.0,
          "clearcoatRoughnessFactor": 0.04
        }
      },
      "name": "side",
      "pbrMetallicRoughness": {
        "baseColorFactor": [
          0.0628462,
          0.0628462,
          0.0628462,
          1.0
        ],
        "metallicFactor": 0.8331714929770148,
        "roughnessFactor": 0.248031
      }
    },
    {
      "doubleSided": true,
      "emissiveFactor": [
        0.6843205062987161,
        0.3477210415835414,
        0.0
      ],
      "extensions": {
        "KHR_materials_clearcoat": {
          "clearcoatFactor": 1.0,
          "clearcoatRoughnessFactor": 0.04
        }
      },
      "name": "golden_emit",
      "pbrMetallicRoughness": {
        "baseColorFactor": [
          0.8,
          0.497089,
          0.0,
          1.0
        ],
        "roughnessFactor": 0.3731867692436429
      }
    },
    {
      "doubleSided": true,
      "emissiveFactor": [
        1.0,
        0.4229112003696027,
        0.0
      ],
      "extensions": {
        "KHR_materials_clearcoat": {
          "clearcoatFactor": 1.0,
          "clearcoatRoughnessFactor": 0.04
        }
      },
      "name": "yellow_emit",
      "pbrMetallicRoughness": {
        "baseColorFactor": [
          0.7999999999999999,
          0.42925399999999986,
          0.00011946200000000381,
          1.0
        ],
        "metallicFactor": 0.0,
        "roughnessFactor": 0.5
      }
    },
    {
      "doubleSided": true,
      "extensions": {
        "KHR_materials_clearcoat": {
          "clearcoatFactor": 1.0,
          "clearcoatRoughnessFactor": 0.04
        }
      },
      "name": "silver_metal",
      "pbrMetallicRoughness": {
        "baseColorFactor": [
          0.206687,
          0.206687,
          0.206687,
          1.0
        ],
        "roughnessFactor": 0.5903970668350645
      }
    },
    {
      "doubleSided": true,
      "emissiveFactor": [
        1.0,
        0.21561500000000014,
        0.0
      ],
      "extensions": {
        "KHR_materials_clearcoat": {
          "clearcoatFactor": 1.0,
          "clearcoatRoughnessFactor": 0.04
        }
      },
      "name": "weapon",
      "pbrMetallicRoughness": {
        "baseColorFactor": [
          0.7999999999999999,
          0.1952429999999999,
          0.0,
          1.0
        ],
        "metallicFactor": 0.0,
        "roughnessFactor": 0.16682850702298524
      }
    },
    {
      "doubleSided": true,
      "extensions": {
        "KHR_materials_clearcoat": {
          "clearcoatFactor": 1.0,
          "clearcoatRoughnessFactor": 0.04
        }
      },
      "name": "uper_thruster",
      "pbrMetallicRoughness": {
        "baseColorFactor": [
          0.216519,
          0.216519,
          0.216519,
          1.0
        ],
        "metallicFactor": 0.685039,
        "roughnessFactor": 0.5236340996460283
      }
    }
  ],
  "meshes": [
    {
      "name": "Object_0",
      "primitives": [
        {
          "attributes": {
            "NORMAL": 1,
            "POSITION": 0,
            "TEXCOORD_0": 2
          },
          "indices": 3,
          "material": 0,
          "mode": 4
        }
      ]
    },
    {
      "name": "Object_1",
      "primitives": [
        {
          "attributes": {
            "NORMAL": 5,
            "POSITION": 4,
            "TEXCOORD_0": 6
          },
          "indices": 7,
          "material": 1,
          "mode": 4
        }
      ]
    },
    {
      "name": "Object_2",
      "primitives": [
        {
          "attributes": {
            "NORMAL": 9,
            "POSITION": 8,
            "TEXCOORD_0": 10
          },
          "indices": 11,
          "material": 2,
          "mode": 4
        }
      ]
    },
    {
      "name": "Object_3",
      "primitives": [
        {
          "attributes": {
            "NORMAL": 13,
            "POSITION": 12,
            "TEXCOORD_0": 14
          },
          "indices": 15,
          "material": 3,
          "mode": 4
        }
      ]
    },
    {
      "name": "Object_4",
      "primitives": [
        {
          "attributes": {
            "NORMAL": 17,
            "POSITION": 16,
            "TEXCOORD_0": 18
          },
          "indices": 19,
          "material": 4,
          "mode": 4
        }
      ]
    },
    {
      "name": "Object_5",
      "primitives": [
        {
          "attributes": {
            "NORMAL": 21,
            "POSITION": 20,
            "TEXCOORD_0": 22
          },
          "indices": 23,
          "material": 5,
          "mode": 4
        }
      ]
    },
    {
      "name": "Object_6",
      "primitives": [
        {
          "attributes": {
            "NORMAL": 25,
            "POSITION": 24,
            "TEXCOORD_0": 26
          },
          "indices": 27,
          "material": 6,
          "mode": 4
        }
      ]
    },
    {
      "name": "Object_7",
      "primitives": [
        {
          "attributes": {
            "NORMAL": 29,
            "POSITION": 28,
            "TEXCOORD_0": 30
          },
          "indices": 31,
          "material": 7,
          "mode": 4
        }
      ]
    }
  ],
  "nodes": [
    {
      "children": [
        1
      ],
      "matrix": [
        1.0,
        0.0,
        0.0,
        0.0,
        0.0,
        2.220446049250313e-16,
        -1.0,
        0.0,
        0.0,
        1.0,
        2.220446049250313e-16,
        0.0,
        0.0,
        0.0,
        0.0,
        1.0
      ],
      "name": "Sketchfab_model"
    },
    {
      "children": [
        2
      ],
      "name": "root"
    },
    {
      "children": [
        3
      ],
      "matrix": [
        1.0,
        0.0,
        0.0,
        0.0,
        0.0,
        2.220446049250313e-16,
        1.0,
        0.0,
        0.0,
        -1.0,
        2.220446049250313e-16,
        0.0,
        0.0,
        0.0,
        0.0,
        1.0
      ],
      "name": "GLTF_SceneRootNode"
    },
    {
      "children": [
        4,
        5,
        6,
        7,
        8,
        9,
        10,
        11
      ],
      "name": "Cube_0",
      "rotation": [
        0.0,
        -0.7071068286895752,
        0.0,
        0.7071068286895752
      ],
      "scale": [
        0.5523306727409363,
        0.5523306727409363,
        0.5523306727409363
      ]
    },
    {
      "mesh": 0,
      "name": "Object_4"
    },
    {
      "mesh": 1,
      "name": "Object_5"
    },
    {
      "mesh": 2,
      "name": "Object_6"
    },
    {
      "mesh": 3,
      "name": "Object_7"
    },
    {
      "mesh": 4,
      "name": "Object_8"
    },
    {
      "mesh": 5,
      "name": "Object_9"
    },
    {
      "mesh": 6,
      "name": "Object_10"
    },
    {
      "mesh": 7,
      "name": "Object_11"
    }
  ],
  "scene": 0,
  "scenes": [
    {
      "name": "Sketchfab_Scene",
      "nodes": [
        0
      ]
    }
  ]
}
